<?xml version="1.0" encoding="UTF-8" ?>
<!DOCTYPE svg PUBLIC "-//W3C//DTD SVG 1.1//EN" "http://www.w3.org/Graphics/SVG/1.1/DTD/svg11.dtd">
<svg width="410pt" height="600pt" viewBox="0 0 410 600" version="1.1" xmlns="http://www.w3.org/2000/svg">
<path fill="#cccccc" d=" M 0.00 0.00 L 4.99 0.00 C 4.95 28.07 5.15 56.14 4.88 84.21 C 3.25 84.79 1.61 85.37 0.00 86.01 L 0.00 0.00 Z" />
<path fill="#ffffff" d=" M 4.99 0.00 L 45.00 0.00 C 45.00 28.00 44.98 55.99 45.01 83.99 L 49.99 84.00 C 50.02 56.00 50.00 28.00 50.00 0.00 L 90.00 0.00 C 90.00 28.00 89.98 55.99 90.01 83.99 L 94.99 84.00 C 95.02 56.00 95.00 28.00 95.00 0.00 L 136.00 0.00 C 136.00 28.00 135.98 55.99 136.01 83.99 L 140.99 84.00 C 141.02 56.00 141.00 28.00 141.00 0.00 L 179.00 0.00 C 179.00 28.00 178.98 55.99 179.01 83.99 L 183.99 84.00 C 184.02 56.00 184.00 28.00 184.00 0.00 L 224.00 0.00 C 224.00 28.00 223.98 55.99 224.01 83.99 L 228.99 84.00 C 229.02 56.00 229.00 28.00 229.00 0.00 L 270.00 0.00 C 270.00 28.00 269.98 55.99 270.01 83.99 L 274.99 84.00 C 275.02 56.00 275.00 28.00 275.00 0.00 L 314.00 0.00 C 314.00 28.00 313.98 55.99 314.01 83.99 L 318.99 84.00 C 319.02 56.00 319.00 28.00 319.00 0.00 L 360.00 0.00 C 360.00 28.00 359.98 55.99 360.01 83.99 L 364.99 84.00 C 365.02 56.00 365.00 28.00 365.00 0.00 L 405.01 0.00 C 404.99 27.96 404.96 55.91 405.04 83.87 C 406.68 83.98 408.34 84.10 410.00 84.22 L 410.00 513.93 C 408.42 514.64 406.82 515.31 405.23 515.99 C 404.78 543.99 405.06 571.99 405.00 600.00 L 365.00 600.00 C 365.00 571.67 365.03 543.34 364.99 515.01 L 360.01 515.00 C 359.98 543.33 360.00 571.66 360.00 600.00 L 319.00 600.00 C 319.00 571.67 319.03 543.34 318.99 515.01 L 314.01 515.00 C 313.98 543.33 314.00 571.66 314.00 600.00 L 275.00 600.00 C 275.00 571.67 275.03 543.34 274.99 515.01 L 270.01 515.00 C 269.98 543.33 270.00 571.66 270.00 600.00 L 229.00 600.00 C 229.00 571.67 229.03 543.34 228.99 515.01 L 224.01 515.00 C 223.98 543.33 224.00 571.66 224.00 600.00 L 184.00 600.00 C 184.00 571.67 184.03 543.34 183.99 515.01 L 179.01 515.00 C 178.98 543.33 179.00 571.66 179.00 600.00 L 141.00 600.00 C 141.00 571.67 141.03 543.34 140.99 515.01 L 136.01 515.00 C 135.98 543.33 136.00 571.66 136.00 600.00 L 95.00 600.00 C 95.00 571.67 95.03 543.34 94.99 515.01 L 90.01 515.00 C 89.98 543.33 90.00 571.66 90.00 600.00 L 50.00 600.00 C 50.00 571.67 50.03 543.34 49.99 515.01 L 45.01 515.00 C 44.98 543.33 45.00 571.66 45.00 600.00 L 4.99 600.00 C 5.01 572.04 5.04 544.09 4.96 516.13 C 3.31 516.01 1.65 515.90 0.00 515.78 L 0.00 86.01 C 1.61 85.37 3.25 84.79 4.88 84.21 C 5.15 56.14 4.95 28.07 4.99 0.00 Z" />
<path fill="#cccccc" d=" M 45.00 0.00 L 50.00 0.00 C 50.00 28.00 50.02 56.00 49.99 84.00 L 45.01 83.99 C 44.98 55.99 45.00 28.00 45.00 0.00 Z" />
<path fill="#cccccc" d=" M 90.00 0.00 L 95.00 0.00 C 95.00 28.00 95.02 56.00 94.99 84.00 L 90.01 83.99 C 89.98 55.99 90.00 28.00 90.00 0.00 Z" />
<path fill="#cccccc" d=" M 136.00 0.00 L 141.00 0.00 C 141.00 28.00 141.02 56.00 140.99 84.00 L 136.01 83.99 C 135.98 55.99 136.00 28.00 136.00 0.00 Z" />
<path fill="#cccccc" d=" M 179.00 0.00 L 184.00 0.00 C 184.00 28.00 184.02 56.00 183.99 84.00 L 179.01 83.99 C 178.98 55.99 179.00 28.00 179.00 0.00 Z" />
<path fill="#cccccc" d=" M 224.00 0.00 L 229.00 0.00 C 229.00 28.00 229.02 56.00 228.99 84.00 L 224.01 83.99 C 223.98 55.99 224.00 28.00 224.00 0.00 Z" />
<path fill="#cccccc" d=" M 270.00 0.00 L 275.00 0.00 C 275.00 28.00 275.02 56.00 274.99 84.00 L 270.01 83.99 C 269.98 55.99 270.00 28.00 270.00 0.00 Z" />
<path fill="#cccccc" d=" M 314.00 0.00 L 319.00 0.00 C 319.00 28.00 319.02 56.00 318.99 84.00 L 314.01 83.99 C 313.98 55.99 314.00 28.00 314.00 0.00 Z" />
<path fill="#cccccc" d=" M 360.00 0.00 L 365.00 0.00 C 365.00 28.00 365.02 56.00 364.99 84.00 L 360.01 83.99 C 359.98 55.99 360.00 28.00 360.00 0.00 Z" />
<path fill="#cccccc" d=" M 405.01 0.00 L 410.00 0.00 L 410.00 84.22 C 408.34 84.10 406.68 83.98 405.04 83.87 C 404.96 55.91 404.99 27.96 405.01 0.00 Z" />
<path fill="#cccccc" d=" M 5.00 100.00 C 18.33 100.00 31.67 100.00 45.00 100.00 C 45.00 113.33 45.00 126.67 45.00 140.00 C 31.67 140.00 18.33 140.00 5.00 140.00 C 5.00 126.67 5.00 113.33 5.00 100.00 Z" />
<path fill="#cccccc" d=" M 50.00 100.00 C 63.33 100.00 76.67 100.00 90.00 100.00 C 90.00 113.33 90.00 126.67 90.00 140.00 C 76.67 140.00 63.33 140.00 50.00 140.00 C 50.00 126.67 50.00 113.33 50.00 100.00 Z" />
<path fill="#cccccc" d=" M 95.00 100.00 C 108.33 100.00 121.67 100.00 135.00 100.00 C 135.00 113.33 135.00 126.67 135.00 140.00 C 121.67 140.00 108.33 140.00 95.00 140.00 C 95.00 126.67 95.00 113.33 95.00 100.00 Z" />
<path fill="#cccccc" d=" M 140.00 100.00 C 153.33 100.00 166.66 100.00 180.00 100.00 C 180.00 113.33 180.00 126.67 180.00 140.00 C 166.66 140.00 153.33 140.00 140.00 140.00 C 140.00 126.67 140.00 113.33 140.00 100.00 Z" />
<path fill="#cccccc" d=" M 185.00 100.00 C 198.33 100.00 211.66 100.00 225.00 100.00 C 225.00 113.33 225.00 126.67 225.00 140.00 C 211.66 140.00 198.33 140.00 185.00 140.00 C 185.00 126.67 185.00 113.33 185.00 100.00 Z" />
<path fill="#cccccc" d=" M 230.00 100.00 C 243.33 100.00 256.66 100.00 270.00 100.00 C 270.00 113.33 270.00 126.67 270.00 140.00 C 256.66 140.00 243.33 140.00 230.00 140.00 C 230.00 126.67 230.00 113.33 230.00 100.00 Z" />
<path fill="#cccccc" d=" M 275.00 100.00 C 288.33 100.00 301.66 100.00 315.00 100.00 C 315.00 113.33 315.00 126.67 315.00 140.00 C 301.66 140.00 288.33 140.00 275.00 140.00 C 275.00 126.67 275.00 113.33 275.00 100.00 Z" />
<path fill="#cccccc" d=" M 320.00 100.00 C 333.33 100.00 346.66 100.00 360.00 100.00 C 360.00 113.33 360.00 126.67 360.00 140.00 C 346.66 140.00 333.33 140.00 320.00 140.00 C 319.99 126.67 319.99 113.33 320.00 100.00 Z" />
<path fill="#cccccc" d=" M 365.00 100.00 C 378.33 100.00 391.66 100.00 405.00 100.00 C 405.00 113.33 405.00 126.67 405.00 140.00 C 391.66 140.00 378.33 140.00 365.00 140.00 C 364.99 126.67 364.99 113.33 365.00 100.00 Z" />
<path fill="#cccccc" d=" M 5.00 145.00 C 18.33 145.00 31.67 145.00 45.00 145.00 C 45.00 158.33 45.00 171.66 45.00 185.00 C 31.67 185.00 18.33 185.00 5.00 185.00 C 5.00 171.66 5.00 158.33 5.00 145.00 Z" />
<path fill="#cccccc" d=" M 50.00 145.00 C 63.33 145.00 76.67 145.00 90.00 145.00 C 90.00 158.33 90.00 171.66 90.00 185.00 C 76.67 185.00 63.33 185.00 50.00 185.00 C 50.00 171.66 50.00 158.33 50.00 145.00 Z" />
<path fill="#cccccc" d=" M 95.00 145.00 C 108.33 145.00 121.67 145.00 135.00 145.00 C 135.00 158.33 135.00 171.66 135.00 185.00 C 121.67 185.00 108.33 185.00 95.00 185.00 C 95.00 171.66 95.00 158.33 95.00 145.00 Z" />
<path fill="#cccccc" d=" M 140.00 145.00 C 153.33 145.00 166.66 145.00 180.00 145.00 C 180.00 158.33 180.00 171.66 180.00 185.00 C 166.66 185.00 153.33 185.00 140.00 185.00 C 140.00 171.66 140.00 158.33 140.00 145.00 Z" />
<path fill="#cccccc" d=" M 185.00 145.00 C 198.33 145.00 211.66 145.00 225.00 145.00 C 225.00 158.33 225.00 171.66 225.00 185.00 C 211.66 185.00 198.33 185.00 185.00 185.00 C 185.00 171.66 185.00 158.33 185.00 145.00 Z" />
<path fill="#cccccc" d=" M 230.00 145.00 C 243.33 145.00 256.66 145.00 270.00 145.00 C 270.00 158.33 270.00 171.66 270.00 185.00 C 256.66 185.00 243.33 185.00 230.00 185.00 C 230.00 171.66 230.00 158.33 230.00 145.00 Z" />
<path fill="#cccccc" d=" M 275.00 145.00 C 288.33 145.00 301.66 145.00 315.00 145.00 C 315.00 158.33 315.00 171.66 315.00 185.00 C 301.66 185.00 288.33 185.00 275.00 185.00 C 275.00 171.66 275.00 158.33 275.00 145.00 Z" />
<path fill="#cccccc" d=" M 320.00 145.00 C 333.33 145.00 346.66 145.00 360.00 145.00 C 360.00 158.33 360.00 171.66 360.00 185.00 C 346.66 185.00 333.33 185.00 320.00 185.00 C 319.99 171.66 319.99 158.33 320.00 145.00 Z" />
<path fill="#cccccc" d=" M 365.00 145.00 C 378.33 145.00 391.66 145.00 405.00 145.00 C 405.00 158.33 405.00 171.66 405.00 185.00 C 391.66 185.00 378.33 185.00 365.00 185.00 C 364.99 171.66 364.99 158.33 365.00 145.00 Z" />
<path fill="#cccccc" d=" M 5.00 190.00 C 18.33 190.00 31.67 190.00 45.00 190.00 C 45.00 203.33 45.00 216.66 45.00 230.00 C 31.67 230.00 18.33 230.00 5.00 230.00 C 5.00 216.66 5.00 203.33 5.00 190.00 Z" />
<path fill="#cccccc" d=" M 50.00 190.00 C 63.33 190.00 76.67 190.00 90.00 190.00 C 90.00 203.33 90.00 216.66 90.00 230.00 C 76.67 230.00 63.33 230.00 50.00 230.00 C 50.00 216.66 50.00 203.33 50.00 190.00 Z" />
<path fill="#cccccc" d=" M 95.00 190.00 C 108.33 190.00 121.67 190.00 135.00 190.00 C 135.00 203.33 135.00 216.66 135.00 230.00 C 121.67 230.00 108.33 230.00 95.00 230.00 C 95.00 216.66 95.00 203.33 95.00 190.00 Z" />
<path fill="#cccccc" d=" M 140.00 190.00 C 153.33 190.00 166.66 190.00 180.00 190.00 C 180.00 203.33 180.00 216.66 180.00 230.00 C 166.66 230.00 153.33 230.00 140.00 230.00 C 140.00 216.66 140.00 203.33 140.00 190.00 Z" />
<path fill="#cccccc" d=" M 185.00 190.00 C 198.33 190.00 211.66 190.00 225.00 190.00 C 225.00 203.33 225.00 216.66 225.00 230.00 C 211.66 230.00 198.33 230.00 185.00 230.00 C 185.00 216.66 185.00 203.33 185.00 190.00 Z" />
<path fill="#cccccc" d=" M 230.00 190.00 C 243.33 190.00 256.66 190.00 270.00 190.00 C 270.00 203.33 270.00 216.66 270.00 230.00 C 256.66 230.00 243.33 230.00 230.00 230.00 C 230.00 216.66 230.00 203.33 230.00 190.00 Z" />
<path fill="#cccccc" d=" M 275.00 190.00 C 288.33 190.00 301.66 190.00 315.00 190.00 C 315.00 203.33 315.00 216.66 315.00 230.00 C 301.66 230.00 288.33 230.00 275.00 230.00 C 275.00 216.66 275.00 203.33 275.00 190.00 Z" />
<path fill="#cccccc" d=" M 320.00 190.00 C 333.33 190.00 346.66 190.00 360.00 190.00 C 360.00 203.33 360.00 216.66 360.00 230.00 C 346.66 230.00 333.33 230.00 320.00 230.00 C 319.99 216.66 319.99 203.33 320.00 190.00 Z" />
<path fill="#cccccc" d=" M 365.00 190.00 C 378.33 190.00 391.66 190.00 405.00 190.00 C 405.00 203.33 405.00 216.66 405.00 230.00 C 391.66 230.00 378.33 230.00 365.00 230.00 C 364.99 216.66 364.99 203.33 365.00 190.00 Z" />
<path fill="#cccccc" d=" M 5.00 235.00 C 18.33 235.00 31.67 235.00 45.00 235.00 C 45.00 248.33 45.00 261.66 45.00 275.00 C 31.67 275.00 18.33 275.00 5.00 275.00 C 5.00 261.66 5.00 248.33 5.00 235.00 Z" />
<path fill="#cccccc" d=" M 50.00 235.00 C 63.33 235.00 76.67 235.00 90.00 235.00 C 90.00 248.33 90.00 261.66 90.00 275.00 C 76.67 275.00 63.33 275.00 50.00 275.00 C 50.00 261.66 50.00 248.33 50.00 235.00 Z" />
<path fill="#cccccc" d=" M 95.00 235.00 C 108.33 235.00 121.67 235.00 135.00 235.00 C 135.00 248.33 135.00 261.66 135.00 275.00 C 121.67 275.00 108.33 275.00 95.00 275.00 C 95.00 261.66 95.00 248.33 95.00 235.00 Z" />
<path fill="#cccccc" d=" M 140.00 235.00 C 153.33 235.00 166.66 235.00 180.00 235.00 C 180.00 248.33 180.00 261.66 180.00 275.00 C 166.66 275.00 153.33 275.00 140.00 275.00 C 140.00 261.66 140.00 248.33 140.00 235.00 Z" />
<path fill="#cccccc" d=" M 185.00 235.00 C 198.33 235.00 211.66 235.00 225.00 235.00 C 225.00 248.33 225.00 261.66 225.00 275.00 C 211.66 275.00 198.33 275.00 185.00 275.00 C 185.00 261.66 185.00 248.33 185.00 235.00 Z" />
<path fill="#cccccc" d=" M 230.00 235.00 C 243.33 235.00 256.66 235.00 270.00 235.00 C 270.00 248.33 270.00 261.66 270.00 275.00 C 256.66 275.00 243.33 275.00 230.00 275.00 C 230.00 261.66 230.00 248.33 230.00 235.00 Z" />
<path fill="#cccccc" d=" M 275.00 235.00 C 288.33 235.00 301.66 235.00 315.00 235.00 C 315.00 248.33 315.00 261.66 315.00 275.00 C 301.66 275.00 288.33 275.00 275.00 275.00 C 275.00 261.66 275.00 248.33 275.00 235.00 Z" />
<path fill="#cccccc" d=" M 320.00 235.00 C 333.33 235.00 346.66 235.00 360.00 235.00 C 360.00 248.33 360.00 261.66 360.00 275.00 C 346.66 275.00 333.33 275.00 320.00 275.00 C 319.99 261.66 319.99 248.33 320.00 235.00 Z" />
<path fill="#cccccc" d=" M 365.00 235.00 C 378.33 235.00 391.66 235.00 405.00 235.00 C 405.00 248.33 405.00 261.66 405.00 275.00 C 391.66 275.00 378.33 275.00 365.00 275.00 C 364.99 261.66 364.99 248.33 365.00 235.00 Z" />
<path fill="#cccccc" d=" M 5.00 280.00 C 18.33 280.00 31.67 280.00 45.00 280.00 C 45.00 293.33 45.00 306.66 45.00 320.00 C 31.67 320.00 18.33 320.00 5.00 320.00 C 5.00 306.66 5.00 293.33 5.00 280.00 Z" />
<path fill="#cccccc" d=" M 50.00 280.00 C 63.33 280.00 76.67 280.00 90.00 280.00 C 90.00 293.33 90.00 306.66 90.00 320.00 C 76.67 320.00 63.33 320.00 50.00 320.00 C 50.00 306.66 50.00 293.33 50.00 280.00 Z" />
<path fill="#cccccc" d=" M 95.00 280.00 C 108.33 280.00 121.67 280.00 135.00 280.00 C 135.00 293.33 135.00 306.66 135.00 320.00 C 121.67 320.00 108.33 320.00 95.00 320.00 C 95.00 306.66 95.00 293.33 95.00 280.00 Z" />
<path fill="#cccccc" d=" M 140.00 280.00 C 153.33 280.00 166.66 280.00 180.00 280.00 C 180.00 293.33 180.00 306.66 180.00 320.00 C 166.66 320.00 153.33 320.00 140.00 320.00 C 140.00 306.66 140.00 293.33 140.00 280.00 Z" />
<path fill="#cccccc" d=" M 185.00 280.00 C 198.33 280.00 211.66 280.00 225.00 280.00 C 225.00 293.33 225.00 306.66 225.00 320.00 C 211.66 320.00 198.33 320.00 185.00 320.00 C 185.00 306.66 185.00 293.33 185.00 280.00 Z" />
<path fill="#cccccc" d=" M 230.00 280.00 C 243.33 280.00 256.66 280.00 270.00 280.00 C 270.00 293.33 270.00 306.66 270.00 320.00 C 256.66 320.00 243.33 320.00 230.00 320.00 C 230.00 306.66 230.00 293.33 230.00 280.00 Z" />
<path fill="#cccccc" d=" M 275.00 280.00 C 288.33 280.00 301.66 280.00 315.00 280.00 C 315.00 293.33 315.00 306.66 315.00 320.00 C 301.66 320.00 288.33 320.00 275.00 320.00 C 275.00 306.66 275.00 293.33 275.00 280.00 Z" />
<path fill="#cccccc" d=" M 320.00 280.00 C 333.33 280.00 346.66 280.00 360.00 280.00 C 360.00 293.33 360.00 306.66 360.00 320.00 C 346.66 320.00 333.33 320.00 320.00 320.00 C 319.99 306.66 319.99 293.33 320.00 280.00 Z" />
<path fill="#cccccc" d=" M 365.00 280.00 C 378.33 280.00 391.66 280.00 405.00 280.00 C 405.00 293.33 405.00 306.66 405.00 320.00 C 391.66 320.00 378.33 320.00 365.00 320.00 C 364.99 306.66 364.99 293.33 365.00 280.00 Z" />
<path fill="#cccccc" d=" M 5.00 325.00 C 18.33 324.99 31.67 324.99 45.00 325.00 C 45.00 338.33 45.00 351.66 45.00 365.00 C 31.67 365.00 18.33 365.00 5.00 365.00 C 5.00 351.66 5.00 338.33 5.00 325.00 Z" />
<path fill="#cccccc" d=" M 50.00 325.00 C 63.33 324.99 76.67 324.99 90.00 325.00 C 90.00 338.33 90.00 351.66 90.00 365.00 C 76.67 365.00 63.33 365.00 50.00 365.00 C 50.00 351.66 50.00 338.33 50.00 325.00 Z" />
<path fill="#cccccc" d=" M 95.00 325.00 C 108.33 324.99 121.67 324.99 135.00 325.00 C 135.00 338.33 135.00 351.66 135.00 365.00 C 121.67 365.00 108.33 365.00 95.00 365.00 C 95.00 351.66 95.00 338.33 95.00 325.00 Z" />
<path fill="#cccccc" d=" M 140.00 325.00 C 153.33 324.99 166.66 324.99 180.00 325.00 C 180.00 338.33 180.00 351.66 180.00 365.00 C 166.66 365.00 153.33 365.00 140.00 365.00 C 140.00 351.66 140.00 338.33 140.00 325.00 Z" />
<path fill="#cccccc" d=" M 185.00 325.00 C 198.33 324.99 211.66 324.99 225.00 325.00 C 225.00 338.33 225.00 351.66 225.00 365.00 C 211.66 365.00 198.33 365.00 185.00 365.00 C 185.00 351.66 185.00 338.33 185.00 325.00 Z" />
<path fill="#cccccc" d=" M 230.00 325.00 C 243.33 324.99 256.66 324.99 270.00 325.00 C 270.00 338.33 270.00 351.66 270.00 365.00 C 256.66 365.00 243.33 365.00 230.00 365.00 C 230.00 351.66 230.00 338.33 230.00 325.00 Z" />
<path fill="#cccccc" d=" M 275.00 325.00 C 288.33 324.99 301.66 324.99 315.00 325.00 C 315.00 338.33 315.00 351.66 315.00 365.00 C 301.66 365.00 288.33 365.00 275.00 365.00 C 275.00 351.66 275.00 338.33 275.00 325.00 Z" />
<path fill="#cccccc" d=" M 320.00 325.00 C 333.33 324.99 346.66 324.99 360.00 325.00 C 360.00 338.33 360.00 351.66 360.00 365.00 C 346.66 365.00 333.33 365.00 320.00 365.00 C 319.99 351.66 319.99 338.33 320.00 325.00 Z" />
<path fill="#cccccc" d=" M 365.00 325.00 C 378.33 324.99 391.66 324.99 405.00 325.00 C 405.00 338.33 405.00 351.66 405.00 365.00 C 391.66 365.00 378.33 365.00 365.00 365.00 C 364.99 351.66 364.99 338.33 365.00 325.00 Z" />
<path fill="#cccccc" d=" M 5.00 370.00 C 18.33 369.99 31.67 369.99 45.00 370.00 C 45.00 383.33 45.00 396.66 45.00 410.00 C 31.67 410.00 18.33 410.00 5.00 410.00 C 5.00 396.66 5.00 383.33 5.00 370.00 Z" />
<path fill="#cccccc" d=" M 50.00 370.00 C 63.33 369.99 76.67 369.99 90.00 370.00 C 90.00 383.33 90.00 396.66 90.00 410.00 C 76.67 410.00 63.33 410.00 50.00 410.00 C 50.00 396.66 50.00 383.33 50.00 370.00 Z" />
<path fill="#cccccc" d=" M 95.00 370.00 C 108.33 369.99 121.67 369.99 135.00 370.00 C 135.00 383.33 135.00 396.66 135.00 410.00 C 121.67 410.00 108.33 410.00 95.00 410.00 C 95.00 396.66 95.00 383.33 95.00 370.00 Z" />
<path fill="#cccccc" d=" M 140.00 370.00 C 153.33 369.99 166.66 369.99 180.00 370.00 C 180.00 383.33 180.00 396.66 180.00 410.00 C 166.66 410.00 153.33 410.00 140.00 410.00 C 140.00 396.66 140.00 383.33 140.00 370.00 Z" />
<path fill="#cccccc" d=" M 185.00 370.00 C 198.33 369.99 211.66 369.99 225.00 370.00 C 225.00 383.33 225.00 396.66 225.00 410.00 C 211.66 410.00 198.33 410.00 185.00 410.00 C 185.00 396.66 185.00 383.33 185.00 370.00 Z" />
<path fill="#cccccc" d=" M 230.00 370.00 C 243.33 369.99 256.66 369.99 270.00 370.00 C 270.00 383.33 270.00 396.66 270.00 410.00 C 256.66 410.00 243.33 410.00 230.00 410.00 C 230.00 396.66 230.00 383.33 230.00 370.00 Z" />
<path fill="#cccccc" d=" M 275.00 370.00 C 288.33 369.99 301.66 369.99 315.00 370.00 C 315.00 383.33 315.00 396.66 315.00 410.00 C 301.66 410.00 288.33 410.00 275.00 410.00 C 275.00 396.66 275.00 383.33 275.00 370.00 Z" />
<path fill="#cccccc" d=" M 320.00 370.00 C 333.33 369.99 346.66 369.99 360.00 370.00 C 360.00 383.33 360.00 396.66 360.00 410.00 C 346.66 410.00 333.33 410.00 320.00 410.00 C 319.99 396.66 319.99 383.33 320.00 370.00 Z" />
<path fill="#cccccc" d=" M 365.00 370.00 C 378.33 369.99 391.66 369.99 405.00 370.00 C 405.00 383.33 405.00 396.66 405.00 410.00 C 391.66 410.00 378.33 410.00 365.00 410.00 C 364.99 396.66 364.99 383.33 365.00 370.00 Z" />
<path fill="#cccccc" d=" M 5.00 415.00 C 18.33 414.99 31.67 414.99 45.00 415.00 C 45.00 428.33 45.00 441.66 45.00 455.00 C 31.67 455.00 18.33 455.00 5.00 455.00 C 5.00 441.66 5.00 428.33 5.00 415.00 Z" />
<path fill="#cccccc" d=" M 50.00 415.00 C 63.33 414.99 76.67 414.99 90.00 415.00 C 90.00 428.33 90.00 441.66 90.00 455.00 C 76.67 455.00 63.33 455.00 50.00 455.00 C 50.00 441.66 50.00 428.33 50.00 415.00 Z" />
<path fill="#cccccc" d=" M 95.00 415.00 C 108.33 414.99 121.67 414.99 135.00 415.00 C 135.00 428.33 135.00 441.66 135.00 455.00 C 121.67 455.00 108.33 455.00 95.00 455.00 C 95.00 441.66 95.00 428.33 95.00 415.00 Z" />
<path fill="#cccccc" d=" M 140.00 415.00 C 153.33 414.99 166.66 414.99 180.00 415.00 C 180.00 428.33 180.00 441.66 180.00 455.00 C 166.66 455.00 153.33 455.00 140.00 455.00 C 140.00 441.66 140.00 428.33 140.00 415.00 Z" />
<path fill="#cccccc" d=" M 185.00 415.00 C 198.33 414.99 211.66 414.99 225.00 415.00 C 225.00 428.33 225.00 441.66 225.00 455.00 C 211.66 455.00 198.33 455.00 185.00 455.00 C 185.00 441.66 185.00 428.33 185.00 415.00 Z" />
<path fill="#cccccc" d=" M 230.00 415.00 C 243.33 414.99 256.66 414.99 270.00 415.00 C 270.00 428.33 270.00 441.66 270.00 455.00 C 256.66 455.00 243.33 455.00 230.00 455.00 C 230.00 441.66 230.00 428.33 230.00 415.00 Z" />
<path fill="#cccccc" d=" M 275.00 415.00 C 288.33 414.99 301.66 414.99 315.00 415.00 C 315.00 428.33 315.00 441.66 315.00 455.00 C 301.66 455.00 288.33 455.00 275.00 455.00 C 275.00 441.66 275.00 428.33 275.00 415.00 Z" />
<path fill="#cccccc" d=" M 320.00 415.00 C 333.33 414.99 346.66 414.99 360.00 415.00 C 360.00 428.33 360.00 441.66 360.00 455.00 C 346.66 455.00 333.33 455.00 320.00 455.00 C 319.99 441.66 319.99 428.33 320.00 415.00 Z" />
<path fill="#cccccc" d=" M 365.00 415.00 C 378.33 414.99 391.66 414.99 405.00 415.00 C 405.00 428.33 405.00 441.66 405.00 455.00 C 391.66 455.00 378.33 455.00 365.00 455.00 C 364.99 441.66 364.99 428.33 365.00 415.00 Z" />
<path fill="#cccccc" d=" M 5.00 460.00 C 18.33 459.99 31.67 459.99 45.00 460.00 C 45.00 473.33 45.00 486.66 45.00 500.00 C 31.67 500.00 18.33 500.00 5.00 500.00 C 5.00 486.66 5.00 473.33 5.00 460.00 Z" />
<path fill="#cccccc" d=" M 50.00 460.00 C 63.33 459.99 76.67 459.99 90.00 460.00 C 90.00 473.33 90.00 486.66 90.00 500.00 C 76.67 500.00 63.33 500.00 50.00 500.00 C 50.00 486.66 50.00 473.33 50.00 460.00 Z" />
<path fill="#cccccc" d=" M 95.00 460.00 C 108.33 459.99 121.67 459.99 135.00 460.00 C 135.00 473.33 135.00 486.66 135.00 500.00 C 121.67 500.00 108.33 500.00 95.00 500.00 C 95.00 486.66 95.00 473.33 95.00 460.00 Z" />
<path fill="#cccccc" d=" M 140.00 460.00 C 153.33 459.99 166.66 459.99 180.00 460.00 C 180.00 473.33 180.00 486.66 180.00 500.00 C 166.66 500.00 153.33 500.00 140.00 500.00 C 140.00 486.66 140.00 473.33 140.00 460.00 Z" />
<path fill="#cccccc" d=" M 185.00 460.00 C 198.33 459.99 211.66 459.99 225.00 460.00 C 225.00 473.33 225.00 486.66 225.00 500.00 C 211.66 500.00 198.33 500.00 185.00 500.00 C 185.00 486.66 185.00 473.33 185.00 460.00 Z" />
<path fill="#cccccc" d=" M 230.00 460.00 C 243.33 459.99 256.66 459.99 270.00 460.00 C 270.00 473.33 270.00 486.66 270.00 500.00 C 256.66 500.00 243.33 500.00 230.00 500.00 C 230.00 486.66 230.00 473.33 230.00 460.00 Z" />
<path fill="#cccccc" d=" M 275.00 460.00 C 288.33 459.99 301.66 459.99 315.00 460.00 C 315.00 473.33 315.00 486.66 315.00 500.00 C 301.66 500.00 288.33 500.00 275.00 500.00 C 275.00 486.66 275.00 473.33 275.00 460.00 Z" />
<path fill="#cccccc" d=" M 320.00 460.00 C 333.33 459.99 346.66 459.99 360.00 460.00 C 360.00 473.33 360.00 486.66 360.00 500.00 C 346.66 500.00 333.33 500.00 320.00 500.00 C 319.99 486.66 319.99 473.33 320.00 460.00 Z" />
<path fill="#cccccc" d=" M 365.00 460.00 C 378.33 459.99 391.66 459.99 405.00 460.00 C 405.00 473.33 405.00 486.66 405.00 500.00 C 391.66 500.00 378.33 500.00 365.00 500.00 C 364.99 486.66 364.99 473.33 365.00 460.00 Z" />
<path fill="#cccccc" d=" M 45.01 515.00 L 49.99 515.01 C 50.03 543.34 50.00 571.67 50.00 600.00 L 45.00 600.00 C 45.00 571.66 44.98 543.33 45.01 515.00 Z" />
<path fill="#cccccc" d=" M 90.01 515.00 L 94.99 515.01 C 95.03 543.34 95.00 571.67 95.00 600.00 L 90.00 600.00 C 90.00 571.66 89.98 543.33 90.01 515.00 Z" />
<path fill="#cccccc" d=" M 136.01 515.00 L 140.99 515.01 C 141.03 543.34 141.00 571.67 141.00 600.00 L 136.00 600.00 C 136.00 571.66 135.98 543.33 136.01 515.00 Z" />
<path fill="#cccccc" d=" M 179.01 515.00 L 183.99 515.01 C 184.03 543.34 184.00 571.67 184.00 600.00 L 179.00 600.00 C 179.00 571.66 178.98 543.33 179.01 515.00 Z" />
<path fill="#cccccc" d=" M 224.01 515.00 L 228.99 515.01 C 229.03 543.34 229.00 571.67 229.00 600.00 L 224.00 600.00 C 224.00 571.66 223.98 543.33 224.01 515.00 Z" />
<path fill="#cccccc" d=" M 270.01 515.00 L 274.99 515.01 C 275.03 543.34 275.00 571.67 275.00 600.00 L 270.00 600.00 C 270.00 571.66 269.98 543.33 270.01 515.00 Z" />
<path fill="#cccccc" d=" M 314.01 515.00 L 318.99 515.01 C 319.03 543.34 319.00 571.67 319.00 600.00 L 314.00 600.00 C 314.00 571.66 313.98 543.33 314.01 515.00 Z" />
<path fill="#cccccc" d=" M 360.01 515.00 L 364.99 515.01 C 365.03 543.34 365.00 571.67 365.00 600.00 L 360.00 600.00 C 360.00 571.66 359.98 543.33 360.01 515.00 Z" />
<path fill="#cccccc" d=" M 405.23 515.99 C 406.82 515.31 408.42 514.64 410.00 513.93 L 410.00 600.00 L 405.00 600.00 C 405.06 571.99 404.78 543.99 405.23 515.99 Z" />
<path fill="#cccccc" d=" M 0.00 515.78 C 1.65 515.90 3.31 516.01 4.96 516.13 C 5.04 544.09 5.01 572.04 4.99 600.00 L 0.00 600.00 L 0.00 515.78 Z" />
</svg>
